<svg width="120" height="120" viewBox="0 0 120 120" fill="none" xmlns="http://www.w3.org/2000/svg">
<path d="M60 0C26.9147 0 0 26.9147 0 60C0 93.0853 26.9147 120 60 120C93.0853 120 120 93.0853 120 60C120 26.9147 93.0853 0 60 0Z" fill="#2ABE42"/>
<path d="M88.2867 47.5365L55.7864 80.0359C54.8114 81.0109 53.5315 81.5016 52.2516 81.5016C50.9717 81.5016 49.6918 81.0109 48.7167 80.0359L32.467 63.7862C30.5115 61.8315 30.5115 58.6711 32.467 56.7165C34.4217 54.7609 37.5812 54.7609 39.5367 56.7165L52.2516 69.4313L81.217 40.4668C83.1717 38.5112 86.3312 38.5112 88.2867 40.4668C90.2414 42.4214 90.2414 45.5809 88.2867 47.5365Z" fill="#FAFAFA"/>
</svg>
