<svg width="1440" height="967" viewBox="0 0 1440 967" fill="none" xmlns="http://www.w3.org/2000/svg">
<path fill-rule="evenodd" clip-rule="evenodd" d="M212.277 360.294C197.496 305.132 140.841 272.385 85.6359 287.178V287.178C30.4295 301.97 -2.26079 358.657 12.5197 413.819C27.3002 468.98 83.9543 501.727 139.161 486.935C194.366 472.143 227.057 415.455 212.277 360.294ZM-7.07176 740.217C48.1347 725.424 80.8247 668.736 66.0445 613.576C51.264 558.414 -5.39015 525.667 -60.5966 540.46C-115.803 555.252 -148.493 611.939 -133.713 667.101V667.101C-118.933 722.261 -62.2782 755.01 -7.07176 740.217ZM392.443 633.167C447.648 618.375 480.339 561.687 465.559 506.526C450.779 451.365 394.123 418.618 338.918 433.41C283.713 448.202 251.021 504.89 265.802 560.051C280.582 615.212 337.237 647.96 392.443 633.167ZM192.686 686.692C247.891 671.9 304.546 704.648 319.327 759.808C334.107 814.969 301.416 871.657 246.21 886.449C191.004 901.242 134.349 868.494 119.569 813.333C104.789 758.173 137.479 701.485 192.686 686.692Z" fill="#DD8012" fill-opacity="0.2"/>
<path d="M840.069 544.269C803.314 554.118 772.148 552.334 746.573 538.919C721.264 525.433 703.412 501.955 693.016 468.486C690.68 460.834 687.229 448.484 682.661 431.438C678.094 414.393 674.908 401.972 673.105 394.177C665.321 360.865 669.319 332.103 685.098 307.893C700.805 283.416 726.771 266.324 762.993 256.619C787.497 250.053 809.68 248.676 829.542 252.489C849.6 255.964 865.833 262.748 878.243 272.839C890.582 282.665 898.623 293.499 902.367 305.341C903.009 307.738 902.746 309.95 901.576 311.976C900.406 314.003 898.489 315.373 895.826 316.086L853.877 327.326C851.213 328.04 849.073 328.043 847.456 327.334C845.839 326.626 844.176 325.215 842.469 323.104C836.099 314.248 827.326 307.607 816.148 303.18C804.971 298.753 791.392 298.68 775.411 302.962C756.767 307.958 743.474 316.944 735.532 329.919C727.786 342.557 726.465 359.468 731.57 380.652C733.373 388.447 736.38 400.202 740.591 415.916C744.73 431.364 748.003 443.048 750.411 450.967C756.724 472.398 766.599 486.879 780.036 494.412C793.402 501.679 809.407 502.814 828.051 497.818C846.961 492.751 860.787 483.623 869.528 470.433C878.268 457.243 879.927 440.527 874.503 420.285L871.184 407.9L822.444 420.96C819.78 421.674 817.267 421.348 814.903 419.984C812.539 418.619 811 416.605 810.286 413.941L804.398 391.968C803.685 389.304 804.01 386.791 805.375 384.427C806.74 382.063 808.754 380.524 811.418 379.81L907.301 354.118C910.231 353.333 912.878 353.623 915.242 354.988C917.606 356.353 919.144 358.367 919.858 361.031L931.205 403.379C937.129 425.486 937.376 446.116 931.946 465.27C926.444 484.157 915.815 500.422 900.059 514.064C884.303 527.706 864.306 537.775 840.069 544.269Z" fill="#DD8012" fill-opacity="0.2"/>
<path d="M1066.66 483.553C1053.08 487.193 1039.85 487.884 1026.97 485.626C1014.28 483.03 1003.36 477.963 994.205 470.425C985.315 462.816 979.371 453.418 976.374 442.232C971.521 424.121 974.92 407.509 986.571 392.398C998.223 377.286 1016.3 364.307 1040.8 353.461L1093.39 330.805L1091.14 322.415C1088.07 310.962 1082.82 303.091 1075.39 298.802C1067.96 294.512 1057.86 294.08 1045.07 297.506C1036.28 299.861 1029.65 303.35 1025.18 307.973C1020.71 312.597 1017.21 317.104 1014.67 321.494C1012.34 325.547 1010.78 328.248 1010 329.599C1009.79 333.081 1008.22 335.214 1005.29 335.999L974.125 344.349C971.728 344.991 969.383 344.763 967.091 343.665C965.064 342.495 963.694 340.578 962.981 337.915C961.463 331.185 962.661 322.871 966.574 312.973C970.683 302.737 978.442 292.807 989.851 283.185C1001.19 273.295 1016.45 265.782 1035.62 260.643C1067.05 252.222 1091.85 253.143 1110.01 263.405C1128.18 273.667 1140.33 290.251 1146.47 313.157L1180.08 438.604C1180.79 441.268 1180.47 443.782 1179.1 446.146C1178.01 448.438 1175.99 449.977 1173.06 450.762L1139.9 459.647C1137.24 460.361 1134.72 460.035 1132.36 458.67C1130 457.306 1128.46 455.291 1127.74 452.628L1123.57 437.047C1119.99 447.14 1113.63 456.41 1104.47 464.858C1095.25 473.04 1082.64 479.271 1066.66 483.553ZM1069.97 441.56C1084.62 437.635 1095.32 429.63 1102.07 417.543C1108.82 405.457 1109.77 390.358 1104.92 372.247L1102.78 364.257L1064.54 381.354C1035.2 394.355 1022.63 408.713 1026.84 424.427C1029.12 432.95 1034.37 438.681 1042.58 441.62C1050.98 444.221 1060.11 444.201 1069.97 441.56Z" fill="#DD8012" fill-opacity="0.2"/>
<path d="M1243.48 431.893C1240.82 432.606 1238.3 432.281 1235.94 430.916C1233.58 429.551 1232.04 427.537 1231.32 424.874L1180.8 236.303C1180.01 233.373 1180.34 230.859 1181.77 228.762C1183.14 226.398 1185.15 224.859 1187.82 224.145L1219.38 215.688C1222.31 214.903 1224.82 215.229 1226.92 216.665C1229.21 217.764 1230.75 219.778 1231.54 222.707L1235.18 236.291C1244.7 214.326 1261.59 200.096 1285.83 193.602C1315.39 185.68 1339.21 192.001 1357.28 212.566C1360.82 200.199 1367.59 189.25 1377.59 179.718C1387.53 169.919 1399.29 163.2 1412.87 159.56C1434.71 153.708 1454.55 156.384 1472.4 167.588C1490.25 178.792 1502.99 198.644 1510.62 227.142L1541.35 341.803C1542.06 344.467 1541.74 346.98 1540.37 349.344C1539.27 351.637 1537.26 353.176 1534.33 353.961L1501.17 362.846C1498.51 363.56 1495.99 363.234 1493.63 361.869C1491.26 360.504 1489.73 358.49 1489.01 355.827L1459.14 244.362C1454.65 227.582 1447.81 216.427 1438.62 210.897C1429.69 205.295 1419.5 204.028 1408.05 207.097C1397.66 209.88 1389.78 216.133 1384.39 225.855C1379.2 235.239 1378.81 248.188 1383.24 264.702L1413.1 376.166C1413.82 378.83 1413.49 381.343 1412.13 383.707C1411.03 386 1409.01 387.539 1406.08 388.324L1372.53 397.316C1369.86 398.029 1367.35 397.704 1364.98 396.339C1362.62 394.974 1361.08 392.96 1360.37 390.297L1330.5 278.832C1326.08 262.319 1319.27 251.297 1310.08 245.766C1300.82 239.969 1290.59 238.569 1279.41 241.567C1269.02 244.35 1261.13 250.603 1255.75 260.325C1250.55 269.709 1250.17 282.658 1254.59 299.172L1284.46 410.636C1285.17 413.3 1284.85 415.813 1283.48 418.177C1282.38 420.47 1280.37 422.009 1277.44 422.794L1243.48 431.893Z" fill="#DD8012" fill-opacity="0.2"/>
<path d="M1538.01 93.9146C1535.35 94.6283 1532.83 94.3027 1530.47 92.9379C1528.1 91.573 1526.56 89.5589 1525.85 86.8955L1518.04 57.7309C1517.25 54.8011 1517.54 52.1542 1518.91 49.7903C1520.27 47.4263 1522.29 45.8875 1524.95 45.1738L1561.7 35.3253C1564.63 34.5402 1567.28 34.8302 1569.64 36.195C1572.01 37.5598 1573.58 39.7071 1574.37 42.6369L1582.18 71.8015C1582.9 74.4649 1582.44 77.0143 1580.81 79.4496C1579.44 81.8136 1577.43 83.3524 1574.76 84.0661L1538.01 93.9146ZM1604.37 335.193C1601.71 335.906 1599.19 335.581 1596.83 334.216C1594.47 332.851 1592.93 330.837 1592.21 328.174L1541.69 139.603C1540.9 136.673 1541.23 134.159 1542.66 132.062C1544.03 129.698 1546.04 128.159 1548.71 127.445L1582.66 118.346C1585.33 117.632 1587.84 117.958 1590.21 119.323C1592.57 120.688 1594.11 122.702 1594.82 125.365L1645.35 313.936C1646.06 316.599 1645.74 319.113 1644.37 321.477C1643.01 323.841 1640.99 325.38 1638.33 326.094L1604.37 335.193Z" fill="#DD8012" fill-opacity="0.2"/>
<path d="M1780.69 292.231C1760.45 297.655 1742.71 299.123 1727.49 296.637C1712.26 294.151 1700.25 289.805 1691.45 283.599C1682.85 277.055 1677.76 270.853 1676.19 264.994C1675.48 262.33 1675.7 259.985 1676.87 257.959C1678.31 255.861 1680.23 254.491 1682.62 253.849L1715.38 245.071C1717.51 244.5 1719.66 245.066 1721.83 246.769C1723.45 247.477 1727.06 249.222 1732.66 252.004C1738.52 254.715 1744.7 256.484 1751.21 257.311C1757.9 257.8 1764.85 257.081 1772.04 255.154C1782.69 252.3 1790.81 247.983 1796.4 242.203C1801.92 236.158 1803.64 229.273 1801.57 221.549C1800.14 216.222 1797.4 212.389 1793.35 210.049C1789.49 207.372 1783.21 205.772 1774.51 205.249C1766 204.389 1753.43 204.333 1736.78 205.081C1712.86 206.353 1694.12 203.525 1680.56 196.596C1667.26 189.596 1658.44 177.973 1654.09 161.726C1651.23 151.072 1651.75 140.228 1655.65 129.193C1659.47 117.892 1666.85 107.634 1677.8 98.4206C1688.94 88.8691 1703.31 81.7383 1720.88 77.0281C1739 72.1752 1755.36 70.9301 1769.98 73.2927C1784.53 75.3889 1796.21 79.5401 1805.01 85.7462C1814.07 91.881 1819.43 98.0113 1821.07 104.137C1821.71 106.534 1821.35 108.915 1819.98 111.279C1818.81 113.305 1817.03 114.639 1814.63 115.282L1784.67 123.31C1781.74 124.095 1779.19 123.637 1777.02 121.934C1774.8 121.102 1771.09 119.526 1765.91 117.205C1760.91 114.547 1755.6 112.83 1749.97 112.055C1744.34 111.281 1737.92 111.857 1730.73 113.783C1720.88 116.424 1713.86 120.589 1709.67 126.278C1705.49 131.966 1704.32 138.273 1706.18 145.198C1707.46 149.992 1709.73 153.666 1712.99 156.22C1716.51 158.703 1722.52 160.374 1731.03 161.234C1739.47 161.828 1751.8 161.52 1768.04 160.311C1818.47 156.787 1848.05 171.272 1856.75 203.765C1861.82 222.676 1857.67 240.203 1844.3 256.347C1831.19 272.419 1809.99 284.38 1780.69 292.231Z" fill="#DD8012" fill-opacity="0.2"/>
<path d="M2006.9 231.619C1975.47 240.04 1949.09 238.544 1927.76 227.131C1906.43 215.718 1891.32 196.074 1882.42 168.198L1877.31 150.727L1873 133.041C1866.84 104.718 1870.28 80.2468 1883.31 59.6274C1896.27 38.7417 1918.19 24.1596 1949.09 15.881C1979.72 7.6739 2005.87 9.37441 2027.53 20.9825C2049.13 32.3243 2064.33 51.7998 2073.16 79.4089C2074.28 82.5337 2075.99 88.3576 2078.27 96.8805C2080.55 105.404 2081.99 111.299 2082.58 114.566C2088.81 143.155 2085.55 167.724 2072.78 188.272C2060.02 208.82 2038.06 223.269 2006.9 231.619ZM1996.08 191.268C2010.2 187.486 2019.81 180.201 2024.91 169.413C2030.28 158.554 2030.95 144.53 2026.91 127.341C2026.46 124.607 2025.21 119.377 2023.14 111.653C2021.07 103.929 2019.54 98.7715 2018.56 96.1793C2013.46 79.2761 2005.87 67.4647 1995.79 60.745C1985.64 53.7589 1973.64 52.1215 1959.79 55.8325C1945.68 59.6149 1935.97 67.0688 1930.67 78.1941C1925.3 89.053 1924.64 103.077 1928.67 120.266L1932.45 135.954L1937.02 151.428C1942.12 168.331 1949.71 180.142 1959.79 186.862C1969.87 193.582 1981.97 195.05 1996.08 191.268Z" fill="#DD8012" fill-opacity="0.2"/>
<path d="M2179.98 180.959C2177.32 181.673 2174.8 181.347 2172.44 179.983C2170.07 178.618 2168.53 176.604 2167.82 173.94L2126.18 18.529L2093.82 27.2C2091.15 27.9137 2088.64 27.5881 2086.28 26.2233C2083.91 24.8585 2082.37 22.8443 2081.66 20.1809L2075.34 -3.39046C2074.63 -6.0539 2074.96 -8.5676 2076.32 -10.9316C2077.69 -13.2955 2079.7 -14.8343 2082.36 -15.548L2114.72 -24.219L2110.44 -40.1996C2103.95 -64.4368 2105.66 -84.1635 2115.57 -99.3795C2125.41 -114.862 2143.51 -126.136 2169.88 -133.201L2197.44 -140.587C2200.11 -141.301 2202.62 -140.976 2204.99 -139.611C2207.35 -138.246 2208.89 -136.232 2209.6 -133.568L2215.92 -109.997C2216.63 -107.333 2216.31 -104.82 2214.94 -102.456C2213.58 -100.092 2211.56 -98.553 2208.9 -97.8394L2183.33 -90.9882C2172.94 -88.2049 2166.3 -83.7121 2163.39 -77.5097C2160.48 -71.3073 2160.46 -62.8793 2163.31 -52.2256L2167.06 -38.2426L2217 -51.6237C2219.66 -52.3374 2222.18 -52.0118 2224.54 -50.647C2226.91 -49.2822 2228.44 -47.268 2229.16 -44.6046L2235.47 -21.0332C2236.19 -18.3698 2235.86 -15.8561 2234.5 -13.4921C2233.13 -11.1282 2231.12 -9.58935 2228.45 -8.87567L2178.52 4.50551L2220.16 159.917C2220.87 162.58 2220.55 165.094 2219.18 167.458C2218.08 169.75 2216.07 171.289 2213.14 172.074L2179.98 180.959Z" fill="#DD8012" fill-opacity="0.2"/>
<path d="M2408.12 119.83C2383.88 126.324 2363.96 124.954 2348.35 115.718C2332.67 106.217 2321.55 89.2143 2314.99 64.7107L2290.79 -25.5796L2259.23 -17.1227C2256.57 -16.409 2254.06 -16.7346 2251.69 -18.0994C2249.33 -19.4643 2247.79 -21.4784 2247.07 -24.1418L2240.76 -47.7132C2240.05 -50.3766 2240.37 -52.8903 2241.74 -55.2543C2243.1 -57.6183 2245.11 -59.1571 2247.78 -59.8708L2279.34 -68.3276L2261.57 -134.647C2260.78 -137.577 2261.11 -140.091 2262.55 -142.188C2263.91 -144.552 2265.93 -146.091 2268.59 -146.805L2301.75 -155.69C2304.68 -156.475 2307.19 -156.149 2309.29 -154.713C2311.58 -153.614 2313.12 -151.6 2313.91 -148.671L2331.68 -82.3512L2381.62 -95.7324C2384.28 -96.446 2386.79 -96.1204 2389.16 -94.7556C2391.52 -93.3907 2393.06 -91.3766 2393.77 -88.7132L2400.09 -65.1418C2400.8 -62.4784 2400.48 -59.9647 2399.11 -57.6007C2397.75 -55.2367 2395.73 -53.698 2393.07 -52.9843L2343.13 -39.6031L2366.15 46.2925C2369.22 57.7453 2373.53 65.8662 2379.1 70.6553C2384.66 75.4443 2391.97 76.6256 2401.03 74.1991L2428.99 66.7057C2431.92 65.9207 2434.44 66.2462 2436.54 67.6825C2438.83 68.7809 2440.37 70.795 2441.15 73.7248L2447.9 98.8943C2448.61 101.558 2448.28 104.071 2446.92 106.435C2445.82 108.728 2443.81 110.267 2440.88 111.052L2408.12 119.83Z" fill="#DD8012" fill-opacity="0.2"/>
</svg>
