<svg width="254" height="35" viewBox="0 0 254 35" fill="none" xmlns="http://www.w3.org/2000/svg">
<mask id="path-1-inside-1" fill="white">
<path fill-rule="evenodd" clip-rule="evenodd" d="M9.87786 0C6.56415 0 3.87786 2.68629 3.87786 6V21.442L0 24.3184L3.87786 27.1948V29C3.87786 32.3137 6.56416 35 9.87787 35H248C251.314 35 254 32.3137 254 29V6C254 2.68629 251.314 0 248 0H9.87786Z"/>
</mask>
<path fill-rule="evenodd" clip-rule="evenodd" d="M9.87786 0C6.56415 0 3.87786 2.68629 3.87786 6V21.442L0 24.3184L3.87786 27.1948V29C3.87786 32.3137 6.56416 35 9.87787 35H248C251.314 35 254 32.3137 254 29V6C254 2.68629 251.314 0 248 0H9.87786Z" fill="#E0E7FF" fill-opacity="0.2"/>
<path d="M3.87786 21.442L4.47361 22.2451L4.87786 21.9453V21.442H3.87786ZM0 24.3184L-0.595751 23.5152L-1.67855 24.3184L-0.595751 25.1215L0 24.3184ZM3.87786 27.1948H4.87786V26.6914L4.47361 26.3916L3.87786 27.1948ZM4.87786 6C4.87786 3.23858 7.11644 1 9.87786 1V-1C6.01187 -1 2.87786 2.13401 2.87786 6H4.87786ZM4.87786 21.442V6H2.87786V21.442H4.87786ZM0.595751 25.1215L4.47361 22.2451L3.28211 20.6388L-0.595751 23.5152L0.595751 25.1215ZM4.47361 26.3916L0.595751 23.5152L-0.595751 25.1215L3.28211 27.9979L4.47361 26.3916ZM4.87786 29V27.1948H2.87786V29H4.87786ZM9.87787 34C7.11644 34 4.87786 31.7614 4.87786 29H2.87786C2.87786 32.866 6.01188 36 9.87787 36V34ZM248 34H9.87787V36H248V34ZM253 29C253 31.7614 250.761 34 248 34V36C251.866 36 255 32.866 255 29H253ZM253 6V29H255V6H253ZM248 1C250.761 1 253 3.23858 253 6H255C255 2.134 251.866 -1 248 -1V1ZM9.87786 1H248V-1H9.87786V1Z" fill="#E0E7FF" mask="url(#path-1-inside-1)"/>
</svg>
