<svg width="22" height="18" viewBox="0 0 22 18" fill="none" xmlns="http://www.w3.org/2000/svg">
<path d="M12.9273 10.9273C12.6776 11.1952 12.3765 11.4101 12.042 11.5592C11.7074 11.7083 11.3463 11.7884 10.9801 11.7949C10.6139 11.8013 10.2501 11.734 9.91055 11.5968C9.57096 11.4596 9.26247 11.2555 9.0035 10.9965C8.74452 10.7375 8.54036 10.429 8.40319 10.0894C8.26602 9.74985 8.19866 9.38611 8.20512 9.01992C8.21158 8.65373 8.29174 8.29259 8.4408 7.95805C8.58986 7.6235 8.80478 7.32241 9.07273 7.07273M16.4 14.4C14.846 15.5846 12.9537 16.2408 11 16.2727C4.63636 16.2727 1 9 1 9C2.13081 6.89264 3.69921 5.05146 5.6 3.6L16.4 14.4ZM9.09091 1.94546C9.71667 1.79898 10.3573 1.72577 11 1.72728C17.3636 1.72728 21 9 21 9C20.4482 10.0324 19.7901 11.0043 19.0364 11.9L9.09091 1.94546Z" stroke="#B0BAC9" stroke-width="1.5" stroke-linecap="round" stroke-linejoin="round"/>
</svg>
